# xmcd
#
# Track frame offsets:
# 150
# 22129
# 35512
# 60368
# 81863
# 95649
# 113507
# 130843
# 162079
#
# Disc length: 2418 seconds
#
#
# Revision: 0
# Processed by: cddbd v1.5.2PL0 Copyright (c) Steve Scherf et al.
# Submitted via: FreeRIP 2.951 
#
DISCID=6a097009
DTITLE=Wolfram - Vintage
DYEAR=2002
DGENRE=Blues
TTITLE0=All I Need
TTITLE1=Step It Up And Go
TTITLE2=Another High
TTITLE3=We Dont Talk About
TTITLE4=Scattered
TTITLE5=Do What You Want
TTITLE6=Blues 40
TTITLE7=Slow Blues
TTITLE8=I Dont Wanna Go
EXTD=
EXTT0=
EXTT1=
EXTT2=
EXTT3=
EXTT4=
EXTT5=
EXTT6=
EXTT7=
EXTT8=
PLAYORDER=
